<?xml version="1.0" encoding="UTF-8"?>
<svg xmlns="http://www.w3.org/2000/svg" xmlns:xlink="http://www.w3.org/1999/xlink" width="100pt" height="100pt" viewBox="0 0 100 100" version="1.1">
<g id="surface4866415">
<path style=" stroke:none;fill-rule:nonzero;fill:rgb(100%,100%,100%);fill-opacity:1;" d="M 40 18 L 40 28 L 20 28 L 20 38 L 10 38 L 10 48 L 2.25 48 C 1.296875 48.015625 0.492188 48.695312 0.3125 49.625 C 0.3125 49.625 0 51.335938 0 53.5 C 0 54.875 0.140625 56.367188 0.375 57.875 C 0.257812 57.90625 0.101562 57.976562 0 58 L 0.375 58 C 0.953125 61.617188 2.28125 65.46875 4.5 69.125 C 4.507812 69.140625 4.492188 69.171875 4.5 69.1875 C 4.515625 69.226562 4.539062 69.273438 4.5625 69.3125 C 4.664062 69.789062 4.929688 70.210938 5.3125 70.5 C 5.351562 70.523438 5.398438 70.546875 5.4375 70.5625 C 6.054688 71.453125 6.703125 72.34375 7.4375 73.1875 C 12.789062 79.359375 21.476562 84 34 84 C 54.445312 84 71.734375 75.289062 81.5 58 L 99.6875 58 C 97.515625 57.453125 92.851562 56.71875 93.625 53.875 C 91.039062 56.867188 86.117188 57.242188 82.3125 56.5625 C 83.039062 55.1875 83.742188 53.789062 84.375 52.3125 C 90.15625 52.164062 94.304688 50.304688 96.625 48.0625 C 99.164062 45.609375 99.9375 42.875 99.9375 42.875 C 100.132812 42.109375 99.867188 41.304688 99.25 40.8125 C 99.25 40.8125 94.195312 37.125 86.625 38.375 C 84.46875 31.304688 78.875 27.875 78.875 27.875 C 78.460938 27.632812 77.976562 27.539062 77.5 27.625 C 77.179688 27.695312 76.875 27.84375 76.625 28.0625 C 76.625 28.0625 75.289062 29.203125 74.1875 31.25 C 73.085938 33.296875 72.070312 36.414062 72.4375 40.4375 C 72.609375 42.320312 73.203125 44.109375 74.0625 45.8125 C 73.578125 46.109375 73.296875 46.359375 72.5 46.6875 C 70.84375 47.375 68.429688 48 65 48 L 64 48 L 64 38 L 54 38 L 54 18 Z M 44 22 L 50 22 L 50 28 L 44 28 Z M 24 32 L 30 32 L 30 38 L 24 38 Z M 34 32 L 40 32 L 40 38 L 34 38 Z M 44 32 L 50 32 L 50 38 L 44 38 Z M 78.1875 32.4375 C 79.671875 33.539062 82.359375 35.84375 83.3125 40.875 C 83.414062 41.429688 83.742188 41.90625 84.21875 42.203125 C 84.695312 42.5 85.273438 42.585938 85.8125 42.4375 C 90.914062 41.039062 93.671875 42.1875 95.1875 43.0625 C 94.898438 43.695312 94.945312 44.085938 93.8125 45.1875 C 91.992188 46.945312 88.90625 48.71875 83.125 48.5 C 82.28125 48.46875 81.507812 48.96875 81.1875 49.75 C 80.390625 51.742188 79.46875 53.585938 78.5 55.375 C 78.203125 55.203125 77.953125 55 77.75 54.8125 C 75.070312 58.695312 59.523438 57.210938 58.4375 54.1875 C 55.085938 58.125 44.671875 58.125 41.3125 54.1875 C 40.226562 57.210938 24.617188 58.695312 21.9375 54.8125 C 19.539062 57.0625 10.070312 58.445312 6.125 53.875 C 6.5 55.25 5.53125 56.140625 4.25 56.75 C 4.085938 55.609375 4 54.523438 4 53.5 C 4 52.640625 4.0625 52.5625 4.125 52 L 65 52 C 68.9375 52 71.890625 51.25 74 50.375 C 76.109375 49.5 77.609375 48.4375 77.8125 48.3125 C 78.296875 48.007812 78.625 47.515625 78.71875 46.953125 C 78.8125 46.398438 78.664062 45.820312 78.3125 45.375 C 77.203125 43.929688 76.625 42.117188 76.4375 40.0625 C 76.148438 36.835938 76.90625 34.578125 77.6875 33.125 C 77.953125 32.632812 77.96875 32.734375 78.1875 32.4375 Z M 14 42 L 20 42 L 20 48 L 14 48 Z M 24 42 L 30 42 L 30 48 L 24 48 Z M 34 42 L 40 42 L 40 48 L 34 48 Z M 44 42 L 50 42 L 50 48 L 44 48 Z M 54 42 L 60 42 L 60 48 L 54 48 Z M 4.5 58 L 77 58 C 67.820312 72.828125 52.578125 80 34 80 C 23.0625 80 15.96875 76.289062 11.3125 71.375 C 20.1875 71.796875 27.0625 69.4375 27.0625 69.4375 C 28.164062 69.296875 28.953125 68.289062 28.8125 67.1875 C 28.671875 66.085938 27.664062 65.296875 26.5625 65.4375 C 26.453125 65.453125 26.351562 65.46875 26.25 65.5 C 26.078125 65.523438 25.914062 65.5625 25.75 65.625 C 25.75 65.625 17.570312 68.414062 8 67.0625 C 6.203125 64.101562 5.070312 60.929688 4.5 58 Z M 32 62 C 30.898438 62 30 62.898438 30 64 C 30 65.101562 30.898438 66 32 66 C 33.101562 66 34 65.101562 34 64 C 34 63.726562 33.976562 63.484375 33.875 63.25 C 33.734375 63.5 33.429688 63.6875 33.125 63.6875 C 32.671875 63.6875 32.3125 63.265625 32.3125 62.8125 C 32.3125 62.507812 32.507812 62.265625 32.75 62.125 C 32.523438 62.039062 32.257812 62 32 62 Z M 32 62 "/>
</g>
</svg>
