<?xml version="1.0" encoding="UTF-8" standalone="no"?>
<!DOCTYPE svg PUBLIC "-//W3C//DTD SVG 1.1//EN" "http://www.w3.org/Graphics/SVG/1.1/DTD/svg11.dtd">
<svg version="1.1" xmlns="http://www.w3.org/2000/svg" xmlns:xlink="http://www.w3.org/1999/xlink" preserveAspectRatio="xMidYMid meet" viewBox="-0.9999364714200363 -0.8027668371045553 259.9945721454202 85.60675037300656" width="255.99" height="81.61"><defs><path d="M136.28 29.3C134.61 29.3 133.17 29.74 131.94 30.68C130.56 31.55 129.48 32.78 128.61 34.15C126.87 36.47 126.01 39.21 125.64 40.23C125.64 41.6 125.64 52.6 125.64 53.97C125.64 56.07 123.84 57.8 121.67 57.8C119.55 57.79 117.85 56.08 117.83 53.97C117.83 51.12 117.83 28.32 117.83 25.47C117.83 23.37 119.57 21.71 121.67 21.71C123.84 21.71 125.64 23.37 125.64 25.47C125.64 25.52 125.64 25.93 125.64 25.98C126.08 25.47 126.65 24.89 127.16 24.53C129.55 22.94 132.66 21.64 136.28 21.71C138.45 21.71 140.11 23.37 140.11 25.47C140.11 27.5 138.45 29.3 136.28 29.3ZM155.64 21.64C165.04 21.64 172.48 28.65 173.07 38.42C173.07 38.45 173.07 38.74 173.07 38.78C173.07 38.93 173.07 39.29 173 39.43C172.77 41.17 171.26 42.32 169.23 42.32C166.93 42.32 148.53 42.32 146.23 42.32C146.59 43.99 147.39 45.87 148.69 47.1C150.21 48.84 153.1 50.14 155.64 50.35C158.24 50.57 161.34 49.92 163.16 48.55C164.68 46.95 167.64 47.17 168.58 48.32C169.52 49.33 170.25 51.51 168.58 53.02C165.04 56.28 160.77 57.8 155.63 57.8C145.73 57.73 138.06 49.55 137.99 39.72C138.06 29.88 145.73 21.64 155.64 21.64ZM166.34 36.18C165.62 33.28 161.93 29.02 155.64 28.51C149.49 28.8 146.46 33.21 145.87 36.18C145.87 36.18 164.29 36.18 166.34 36.18ZM206.02 57.8C204.06 57.8 202.54 56.43 202.18 54.69C199.44 56.57 195.96 57.8 192.34 57.8C182.58 57.8 174.77 49.56 174.77 39.79C174.77 29.88 182.58 21.64 192.34 21.64C195.89 21.64 199.36 22.79 202.04 24.67C202.04 23.31 202.04 12.44 202.04 11.08C202.04 8.98 203.77 7.17 206.01 7.17C208.18 7.17 209.92 8.98 209.92 11.08C209.92 13.93 209.92 28.21 209.92 53.9C208.76 56.5 207.46 57.8 206.02 57.8ZM185.55 32.49C183.74 34.29 182.65 36.9 182.65 39.79C182.65 42.53 183.74 45.14 185.55 46.95C187.35 48.83 189.74 49.92 192.35 49.92C195.02 49.92 197.34 48.83 199.14 46.95C200.95 45.14 202.04 42.54 202.04 39.79C202.04 36.9 200.95 34.3 199.14 32.49C197.34 30.61 195.02 29.52 192.35 29.52C189.74 29.52 187.35 30.61 185.55 32.49ZM219.78 16.57C217.61 16.57 215.88 14.76 215.88 12.59C215.88 12.44 215.88 11.23 215.88 11.08C215.87 8.93 217.6 7.18 219.75 7.17C219.76 7.17 219.77 7.17 219.78 7.17C222.03 7.17 223.69 8.91 223.69 11.08C223.69 11.18 223.69 11.68 223.69 12.59C222.58 15.25 221.28 16.57 219.78 16.57ZM223.69 53.9C223.69 56.07 222.03 57.81 219.78 57.81C217.64 57.82 215.89 56.08 215.88 53.94C215.88 53.92 215.88 53.91 215.88 53.9C215.88 51.08 215.88 28.51 215.88 25.69C215.88 23.38 217.61 21.71 219.78 21.71C222.03 21.71 223.69 23.38 223.69 25.69C223.69 25.69 223.69 51.08 223.69 53.9ZM234.08 46.88C235.96 48.47 239.22 50.14 242.04 50.06C244 50.06 245.8 49.41 246.96 48.69C247.97 47.82 248.26 47.1 248.26 46.52C248.26 46.16 248.19 46.01 248.04 45.8C247.97 45.58 247.68 45.29 247.1 44.93C246.09 44.21 243.92 43.41 241.32 42.9C241.31 42.9 241.25 42.9 241.24 42.9C239 42.47 236.83 41.9 234.95 41.02C232.99 40.08 231.26 38.78 229.96 36.83C229.16 35.53 228.73 33.93 228.73 32.27C228.73 28.94 230.61 26.12 233 24.31C235.53 22.58 238.57 21.64 241.89 21.64C246.88 21.64 250.43 24.03 252.74 25.62C254.48 26.77 254.99 29.16 253.9 30.97C252.74 32.71 250.36 33.21 248.55 31.98C246.23 30.46 244.21 29.3 241.89 29.3C240.08 29.3 238.49 29.88 237.55 30.6C236.61 31.25 236.39 31.9 236.39 32.27C236.39 32.55 236.39 32.63 236.54 32.84C236.61 32.99 236.82 33.28 237.33 33.57C238.27 34.22 240.15 34.87 242.61 35.3C242.62 35.31 242.64 35.33 242.68 35.38C242.73 35.38 242.75 35.38 242.76 35.38C245.14 35.81 247.39 36.46 249.48 37.47C251.44 38.34 253.39 39.72 254.62 41.74C255.49 43.19 255.99 44.85 255.99 46.52C255.99 50.06 254.04 53.03 251.44 54.91C248.83 56.72 245.58 57.81 242.03 57.81C236.39 57.73 232.05 55.13 229.16 52.81C227.57 51.51 227.35 49.05 228.65 47.46C229.96 45.73 232.49 45.51 234.08 46.88Z" id="aWqeqmIq2"></path><path d="M54.48 79.52C48.88 82.44 45.76 82.41 41.34 80.29C36.91 78.18 8.9 66.86 3.85 64.45C1.33 63.24 0 62.23 0 61.27C0 60.3 0 52.6 0 51.64C0 51.64 36.47 43.7 42.36 41.59C48.25 39.48 50.29 39.41 55.3 41.24C60.31 43.07 90.27 48.48 95.22 50.29C95.22 51.24 95.22 58.83 95.22 59.78C95.22 60.73 94.07 61.77 91.49 63.12C86.41 65.77 60.08 76.59 54.48 79.52Z" id="a2q9eMIfva"></path><path d="M54.48 69.89C48.88 72.81 45.76 72.78 41.34 70.67C36.91 68.55 8.9 57.23 3.85 54.82C-1.2 52.41 -1.3 50.75 3.65 48.81C7.52 47.31 38.49 35.32 42.36 33.83C48.25 31.71 50.29 31.64 55.3 33.47C60.31 35.3 86.48 45.72 91.43 47.54C96.38 49.35 96.57 50.85 91.48 53.5C86.41 56.14 60.08 66.97 54.48 69.89Z" id="fhS2eNCY"></path><path d="M54.48 63.82C48.88 66.75 45.76 66.72 41.34 64.6C36.91 62.48 8.9 51.17 3.85 48.76C1.33 47.55 0 46.53 0 45.57C0 44.61 0 36.91 0 35.95C0 35.95 36.47 28.01 42.36 25.9C48.25 23.78 50.29 23.71 55.3 25.54C60.31 27.37 90.27 32.78 95.22 34.6C95.22 35.55 95.22 43.14 95.22 44.09C95.22 45.04 94.07 46.08 91.49 47.43C86.41 50.08 60.08 60.9 54.48 63.82Z" id="c9nhzRODE"></path><path d="M54.48 54.2C48.88 57.12 45.76 57.09 41.34 54.97C36.91 52.86 8.9 41.54 3.85 39.13C-1.2 36.72 -1.3 35.06 3.65 33.12C7.52 31.62 38.49 19.63 42.36 18.13C48.25 16.02 50.29 15.95 55.3 17.78C60.31 19.61 86.48 30.03 91.43 31.84C96.38 33.66 96.57 35.15 91.48 37.8C86.41 40.45 60.08 51.27 54.48 54.2Z" id="e1S8C0EjCL"></path><path d="M54.48 47.55C48.88 50.48 45.76 50.45 41.34 48.33C36.91 46.21 8.9 34.9 3.85 32.49C1.33 31.28 0 30.26 0 29.3C0 28.34 0 20.64 0 19.68C0 19.68 36.47 11.73 42.36 9.62C48.25 7.51 50.29 7.44 55.3 9.27C60.31 11.1 90.27 16.51 95.22 18.32C95.22 19.27 95.22 26.86 95.22 27.81C95.22 28.76 94.07 29.81 91.49 31.15C86.41 33.8 60.08 44.63 54.48 47.55Z" id="biF1rFyCN"></path><path d="M54.48 37.92C48.88 40.84 45.76 40.81 41.34 38.7C36.91 36.58 8.9 25.27 3.85 22.85C-1.2 20.44 -1.3 18.78 3.65 16.84C7.52 15.34 38.49 3.35 42.36 1.86C48.25 -0.26 50.29 -0.33 55.3 1.5C60.31 3.33 86.48 13.75 91.43 15.57C96.38 17.38 96.57 18.88 91.48 21.52C86.41 24.17 60.08 35 54.48 37.92Z" id="f5gl028J7"></path><path d="M51.84 13.11L49.99 17.56L47 12.6L37.47 11.74L44.58 9.18L42.46 5.24L49.11 7.84L55.39 5.79L53.69 9.86L60.09 12.25L51.84 13.11ZM34.09 27.43L56.16 24.04L49.5 33.82L34.09 27.43Z" id="bfXkrJpYe"></path><path d="M39.94 19.3C39.94 21.82 34.66 23.87 28.15 23.87C21.63 23.87 16.35 21.82 16.35 19.3C16.35 16.77 21.63 14.73 28.15 14.73C34.66 14.73 39.94 16.77 39.94 19.3Z" id="a6wxtKQPql"></path><path d="M82.89 18.63L69.84 23.79L69.84 13.47L82.89 18.63Z" id="b1uBFvPaZw"></path><path d="M69.84 13.47L69.84 23.78L68.43 24.34L55.39 19.18L69.84 13.47Z" id="a2V7RuD8VI"></path></defs><g><g><use xlink:href="#aWqeqmIq2" opacity="1" fill="#ffffff" fill-opacity="1"></use><g><use xlink:href="#aWqeqmIq2" opacity="1" fill-opacity="0" stroke="#000000" stroke-width="1" stroke-opacity="0"></use></g></g><g><use xlink:href="#a2q9eMIfva" opacity="1" fill="#e3e3e3" fill-opacity="1"></use><g><use xlink:href="#a2q9eMIfva" opacity="1" fill-opacity="0" stroke="#000000" stroke-width="1" stroke-opacity="0"></use></g></g><g><use xlink:href="#fhS2eNCY" opacity="1" fill="#ffffff" fill-opacity="1"></use><g><use xlink:href="#fhS2eNCY" opacity="1" fill-opacity="0" stroke="#000000" stroke-width="1" stroke-opacity="0"></use></g></g><g><use xlink:href="#c9nhzRODE" opacity="1" fill="#e3e3e3" fill-opacity="1"></use><g><use xlink:href="#c9nhzRODE" opacity="1" fill-opacity="0" stroke="#000000" stroke-width="1" stroke-opacity="0"></use></g></g><g><use xlink:href="#e1S8C0EjCL" opacity="1" fill="#ffffff" fill-opacity="1"></use><g><use xlink:href="#e1S8C0EjCL" opacity="1" fill-opacity="0" stroke="#000000" stroke-width="1" stroke-opacity="0"></use></g></g><g><use xlink:href="#biF1rFyCN" opacity="1" fill="#e3e3e3" fill-opacity="1"></use><g><use xlink:href="#biF1rFyCN" opacity="1" fill-opacity="0" stroke="#000000" stroke-width="1" stroke-opacity="0"></use></g></g><g><use xlink:href="#f5gl028J7" opacity="1" fill="#ffffff" fill-opacity="1"></use><g><use xlink:href="#f5gl028J7" opacity="1" fill-opacity="0" stroke="#000000" stroke-width="1" stroke-opacity="0"></use></g></g><g><use xlink:href="#bfXkrJpYe" opacity="1" fill="#e3e3e3" fill-opacity="1"></use><g><use xlink:href="#bfXkrJpYe" opacity="1" fill-opacity="0" stroke="#000000" stroke-width="1" stroke-opacity="0"></use></g></g><g><use xlink:href="#a6wxtKQPql" opacity="1" fill="#e3e3e3" fill-opacity="1"></use><g><use xlink:href="#a6wxtKQPql" opacity="1" fill-opacity="0" stroke="#000000" stroke-width="1" stroke-opacity="0"></use></g></g><g><use xlink:href="#b1uBFvPaZw" opacity="1" fill="#e3e3e3" fill-opacity="1"></use><g><use xlink:href="#b1uBFvPaZw" opacity="1" fill-opacity="0" stroke="#000000" stroke-width="1" stroke-opacity="0"></use></g></g><g><use xlink:href="#a2V7RuD8VI" opacity="1" fill="#e3e3e3" fill-opacity="1"></use><g><use xlink:href="#a2V7RuD8VI" opacity="1" fill-opacity="0" stroke="#000000" stroke-width="1" stroke-opacity="0"></use></g></g></g></svg>