<?xml version="1.0" encoding="UTF-8"?>
<svg xmlns="http://www.w3.org/2000/svg" xmlns:xlink="http://www.w3.org/1999/xlink" width="100pt" height="100pt" viewBox="0 0 100 100" version="1.1">
<g id="surface4771318">
<path style=" stroke:none;fill-rule:nonzero;fill:rgb(100%,100%,100%);fill-opacity:1;" d="M 10 8 C 8.894531 8 8 8.894531 8 10 L 8 90 C 8 91.105469 8.894531 92 10 92 L 90 92 C 91.105469 92 92 91.105469 92 90 L 92 10 C 92 8.894531 91.105469 8 90 8 Z M 12 12 L 88 12 L 88 88 L 12 88 Z M 30 46 L 30 52.890625 L 40 52.890625 L 40 84 L 48 84 L 48 52.890625 L 58 52.890625 L 58 46 Z M 73.382812 46.019531 C 67.152344 45.996094 60.035156 47.882812 60.035156 56.648438 C 60.035156 68.109375 75.476562 68.109375 75.476562 73.28125 C 75.476562 73.769531 75.683594 77.332031 70.234375 77.332031 C 64.785156 77.332031 60.242188 73.90625 60.242188 73.90625 L 60.242188 82.222656 C 60.242188 82.222656 84.003906 89.90625 84.003906 72.578125 C 84 61.328125 68.417969 61.890625 68.417969 56.300781 C 68.417969 54.136719 69.957031 52.109375 74.21875 52.109375 C 78.480469 52.109375 82.253906 54.625 82.253906 54.625 L 82.535156 47.214844 C 82.535156 47.214844 78.226562 46.039062 73.382812 46.019531 Z M 73.382812 46.019531 "/>
</g>
</svg>
